ISO-10303-21;
HEADER;
/* Generated by software containing ST-Developer
 * from STEP Tools, Inc. (www.steptools.com) 
 */

FILE_DESCRIPTION(
/* description */ (''),
/* implementation_level */ '2;1');

FILE_NAME(
/* name */ 'bracket_channel_v2.stp.step',
/* time_stamp */ '2026-08-30T23:23:19+02:00',
/* author */ (''),
/* organization */ (''),
/* preprocessor_version */ 'ST-DEVELOPER v20.1',
/* originating_system */ 'Autodesk Translation Framework v15.8.0.0',
/* authorisation */ '');

FILE_SCHEMA (('AUTOMOTIVE_DESIGN { 1 0 10303 214 3 1 1 }'));
ENDSEC;

DATA;
#10=MECHANICAL_DESIGN_GEOMETRIC_PRESENTATION_REPRESENTATION('',(#13),#502);
#11=SHAPE_REPRESENTATION_RELATIONSHIP('SRR','None',#509,#12);
#12=ADVANCED_BREP_SHAPE_REPRESENTATION('',(#14),#501);
#13=STYLED_ITEM('',(#518),#14);
#14=MANIFOLD_SOLID_BREP('Body1',#298);
#15=FACE_BOUND('',#50,.T.);
#16=FACE_BOUND('',#51,.T.);
#17=FACE_BOUND('',#52,.T.);
#18=FACE_BOUND('',#60,.T.);
#19=FACE_BOUND('',#61,.T.);
#20=FACE_BOUND('',#62,.T.);
#21=PLANE('',#315);
#22=PLANE('',#319);
#23=PLANE('',#329);
#24=PLANE('',#330);
#25=PLANE('',#331);
#26=PLANE('',#332);
#27=PLANE('',#333);
#28=PLANE('',#334);
#29=PLANE('',#335);
#30=PLANE('',#336);
#31=FACE_OUTER_BOUND('',#46,.T.);
#32=FACE_OUTER_BOUND('',#47,.T.);
#33=FACE_OUTER_BOUND('',#48,.T.);
#34=FACE_OUTER_BOUND('',#49,.T.);
#35=FACE_OUTER_BOUND('',#53,.T.);
#36=FACE_OUTER_BOUND('',#54,.T.);
#37=FACE_OUTER_BOUND('',#55,.T.);
#38=FACE_OUTER_BOUND('',#56,.T.);
#39=FACE_OUTER_BOUND('',#57,.T.);
#40=FACE_OUTER_BOUND('',#58,.T.);
#41=FACE_OUTER_BOUND('',#59,.T.);
#42=FACE_OUTER_BOUND('',#63,.T.);
#43=FACE_OUTER_BOUND('',#64,.T.);
#44=FACE_OUTER_BOUND('',#65,.T.);
#45=FACE_OUTER_BOUND('',#66,.T.);
#46=EDGE_LOOP('',(#200,#201,#202,#203));
#47=EDGE_LOOP('',(#204,#205,#206,#207));
#48=EDGE_LOOP('',(#208,#209,#210,#211));
#49=EDGE_LOOP('',(#212,#213,#214,#215));
#50=EDGE_LOOP('',(#216));
#51=EDGE_LOOP('',(#217));
#52=EDGE_LOOP('',(#218));
#53=EDGE_LOOP('',(#219,#220,#221,#222));
#54=EDGE_LOOP('',(#223,#224,#225,#226));
#55=EDGE_LOOP('',(#227,#228,#229,#230));
#56=EDGE_LOOP('',(#231,#232,#233,#234));
#57=EDGE_LOOP('',(#235,#236,#237,#238));
#58=EDGE_LOOP('',(#239,#240,#241,#242));
#59=EDGE_LOOP('',(#243,#244,#245,#246));
#60=EDGE_LOOP('',(#247));
#61=EDGE_LOOP('',(#248));
#62=EDGE_LOOP('',(#249));
#63=EDGE_LOOP('',(#250,#251,#252,#253));
#64=EDGE_LOOP('',(#254,#255,#256,#257));
#65=EDGE_LOOP('',(#258,#259,#260,#261,#262,#263,#264,#265,#266,#267));
#66=EDGE_LOOP('',(#268,#269,#270,#271,#272,#273,#274,#275,#276,#277));
#67=LINE('',#424,#96);
#68=LINE('',#427,#97);
#69=LINE('',#430,#98);
#70=LINE('',#432,#99);
#71=LINE('',#433,#100);
#72=LINE('',#439,#101);
#73=LINE('',#442,#102);
#74=LINE('',#444,#103);
#75=LINE('',#445,#104);
#76=LINE('',#454,#105);
#77=LINE('',#458,#106);
#78=LINE('',#462,#107);
#79=LINE('',#466,#108);
#80=LINE('',#468,#109);
#81=LINE('',#469,#110);
#82=LINE('',#472,#111);
#83=LINE('',#474,#112);
#84=LINE('',#475,#113);
#85=LINE('',#478,#114);
#86=LINE('',#480,#115);
#87=LINE('',#481,#116);
#88=LINE('',#484,#117);
#89=LINE('',#486,#118);
#90=LINE('',#487,#119);
#91=LINE('',#490,#120);
#92=LINE('',#492,#121);
#93=LINE('',#493,#122);
#94=LINE('',#495,#123);
#95=LINE('',#496,#124);
#96=VECTOR('',#343,10.);
#97=VECTOR('',#346,10.);
#98=VECTOR('',#349,10.);
#99=VECTOR('',#350,10.);
#100=VECTOR('',#351,10.);
#101=VECTOR('',#356,10.);
#102=VECTOR('',#359,10.);
#103=VECTOR('',#362,10.);
#104=VECTOR('',#363,10.);
#105=VECTOR('',#372,2.5);
#106=VECTOR('',#377,2.5);
#107=VECTOR('',#382,6.);
#108=VECTOR('',#387,10.);
#109=VECTOR('',#388,10.);
#110=VECTOR('',#389,10.);
#111=VECTOR('',#392,10.);
#112=VECTOR('',#393,10.);
#113=VECTOR('',#394,10.);
#114=VECTOR('',#397,10.);
#115=VECTOR('',#398,10.);
#116=VECTOR('',#399,10.);
#117=VECTOR('',#402,10.);
#118=VECTOR('',#403,10.);
#119=VECTOR('',#404,10.);
#120=VECTOR('',#407,10.);
#121=VECTOR('',#408,10.);
#122=VECTOR('',#409,10.);
#123=VECTOR('',#412,10.);
#124=VECTOR('',#413,10.);
#125=CIRCLE('',#313,2.);
#126=CIRCLE('',#314,2.);
#127=CIRCLE('',#317,2.);
#128=CIRCLE('',#318,2.);
#129=CIRCLE('',#320,6.);
#130=CIRCLE('',#321,2.5);
#131=CIRCLE('',#322,2.5);
#132=CIRCLE('',#324,2.5);
#133=CIRCLE('',#326,2.5);
#134=CIRCLE('',#328,6.);
#135=VERTEX_POINT('',#420);
#136=VERTEX_POINT('',#421);
#137=VERTEX_POINT('',#423);
#138=VERTEX_POINT('',#425);
#139=VERTEX_POINT('',#429);
#140=VERTEX_POINT('',#431);
#141=VERTEX_POINT('',#435);
#142=VERTEX_POINT('',#436);
#143=VERTEX_POINT('',#438);
#144=VERTEX_POINT('',#440);
#145=VERTEX_POINT('',#446);
#146=VERTEX_POINT('',#448);
#147=VERTEX_POINT('',#450);
#148=VERTEX_POINT('',#453);
#149=VERTEX_POINT('',#457);
#150=VERTEX_POINT('',#461);
#151=VERTEX_POINT('',#465);
#152=VERTEX_POINT('',#467);
#153=VERTEX_POINT('',#471);
#154=VERTEX_POINT('',#473);
#155=VERTEX_POINT('',#477);
#156=VERTEX_POINT('',#479);
#157=VERTEX_POINT('',#483);
#158=VERTEX_POINT('',#485);
#159=VERTEX_POINT('',#489);
#160=VERTEX_POINT('',#491);
#161=EDGE_CURVE('',#135,#136,#125,.T.);
#162=EDGE_CURVE('',#136,#137,#67,.T.);
#163=EDGE_CURVE('',#137,#138,#126,.T.);
#164=EDGE_CURVE('',#138,#135,#68,.T.);
#165=EDGE_CURVE('',#139,#136,#69,.T.);
#166=EDGE_CURVE('',#139,#140,#70,.T.);
#167=EDGE_CURVE('',#137,#140,#71,.T.);
#168=EDGE_CURVE('',#141,#142,#127,.T.);
#169=EDGE_CURVE('',#142,#143,#72,.T.);
#170=EDGE_CURVE('',#143,#144,#128,.T.);
#171=EDGE_CURVE('',#144,#141,#73,.T.);
#172=EDGE_CURVE('',#143,#138,#74,.T.);
#173=EDGE_CURVE('',#142,#135,#75,.T.);
#174=EDGE_CURVE('',#145,#145,#129,.T.);
#175=EDGE_CURVE('',#146,#146,#130,.T.);
#176=EDGE_CURVE('',#147,#147,#131,.T.);
#177=EDGE_CURVE('',#147,#148,#76,.T.);
#178=EDGE_CURVE('',#148,#148,#132,.T.);
#179=EDGE_CURVE('',#146,#149,#77,.T.);
#180=EDGE_CURVE('',#149,#149,#133,.T.);
#181=EDGE_CURVE('',#145,#150,#78,.T.);
#182=EDGE_CURVE('',#150,#150,#134,.T.);
#183=EDGE_CURVE('',#151,#144,#79,.T.);
#184=EDGE_CURVE('',#152,#151,#80,.T.);
#185=EDGE_CURVE('',#141,#152,#81,.T.);
#186=EDGE_CURVE('',#153,#152,#82,.T.);
#187=EDGE_CURVE('',#154,#151,#83,.T.);
#188=EDGE_CURVE('',#153,#154,#84,.T.);
#189=EDGE_CURVE('',#155,#153,#85,.T.);
#190=EDGE_CURVE('',#156,#154,#86,.T.);
#191=EDGE_CURVE('',#155,#156,#87,.T.);
#192=EDGE_CURVE('',#157,#155,#88,.T.);
#193=EDGE_CURVE('',#158,#156,#89,.T.);
#194=EDGE_CURVE('',#157,#158,#90,.T.);
#195=EDGE_CURVE('',#159,#157,#91,.T.);
#196=EDGE_CURVE('',#160,#158,#92,.T.);
#197=EDGE_CURVE('',#159,#160,#93,.T.);
#198=EDGE_CURVE('',#139,#159,#94,.T.);
#199=EDGE_CURVE('',#140,#160,#95,.T.);
#200=ORIENTED_EDGE('',*,*,#161,.T.);
#201=ORIENTED_EDGE('',*,*,#162,.T.);
#202=ORIENTED_EDGE('',*,*,#163,.T.);
#203=ORIENTED_EDGE('',*,*,#164,.T.);
#204=ORIENTED_EDGE('',*,*,#162,.F.);
#205=ORIENTED_EDGE('',*,*,#165,.F.);
#206=ORIENTED_EDGE('',*,*,#166,.T.);
#207=ORIENTED_EDGE('',*,*,#167,.F.);
#208=ORIENTED_EDGE('',*,*,#168,.T.);
#209=ORIENTED_EDGE('',*,*,#169,.T.);
#210=ORIENTED_EDGE('',*,*,#170,.T.);
#211=ORIENTED_EDGE('',*,*,#171,.T.);
#212=ORIENTED_EDGE('',*,*,#164,.F.);
#213=ORIENTED_EDGE('',*,*,#172,.F.);
#214=ORIENTED_EDGE('',*,*,#169,.F.);
#215=ORIENTED_EDGE('',*,*,#173,.T.);
#216=ORIENTED_EDGE('',*,*,#174,.T.);
#217=ORIENTED_EDGE('',*,*,#175,.T.);
#218=ORIENTED_EDGE('',*,*,#176,.T.);
#219=ORIENTED_EDGE('',*,*,#176,.F.);
#220=ORIENTED_EDGE('',*,*,#177,.T.);
#221=ORIENTED_EDGE('',*,*,#178,.F.);
#222=ORIENTED_EDGE('',*,*,#177,.F.);
#223=ORIENTED_EDGE('',*,*,#175,.F.);
#224=ORIENTED_EDGE('',*,*,#179,.T.);
#225=ORIENTED_EDGE('',*,*,#180,.F.);
#226=ORIENTED_EDGE('',*,*,#179,.F.);
#227=ORIENTED_EDGE('',*,*,#174,.F.);
#228=ORIENTED_EDGE('',*,*,#181,.T.);
#229=ORIENTED_EDGE('',*,*,#182,.F.);
#230=ORIENTED_EDGE('',*,*,#181,.F.);
#231=ORIENTED_EDGE('',*,*,#171,.F.);
#232=ORIENTED_EDGE('',*,*,#183,.F.);
#233=ORIENTED_EDGE('',*,*,#184,.F.);
#234=ORIENTED_EDGE('',*,*,#185,.F.);
#235=ORIENTED_EDGE('',*,*,#186,.T.);
#236=ORIENTED_EDGE('',*,*,#184,.T.);
#237=ORIENTED_EDGE('',*,*,#187,.F.);
#238=ORIENTED_EDGE('',*,*,#188,.F.);
#239=ORIENTED_EDGE('',*,*,#189,.T.);
#240=ORIENTED_EDGE('',*,*,#188,.T.);
#241=ORIENTED_EDGE('',*,*,#190,.F.);
#242=ORIENTED_EDGE('',*,*,#191,.F.);
#243=ORIENTED_EDGE('',*,*,#192,.T.);
#244=ORIENTED_EDGE('',*,*,#191,.T.);
#245=ORIENTED_EDGE('',*,*,#193,.F.);
#246=ORIENTED_EDGE('',*,*,#194,.F.);
#247=ORIENTED_EDGE('',*,*,#178,.T.);
#248=ORIENTED_EDGE('',*,*,#180,.T.);
#249=ORIENTED_EDGE('',*,*,#182,.T.);
#250=ORIENTED_EDGE('',*,*,#195,.T.);
#251=ORIENTED_EDGE('',*,*,#194,.T.);
#252=ORIENTED_EDGE('',*,*,#196,.F.);
#253=ORIENTED_EDGE('',*,*,#197,.F.);
#254=ORIENTED_EDGE('',*,*,#198,.T.);
#255=ORIENTED_EDGE('',*,*,#197,.T.);
#256=ORIENTED_EDGE('',*,*,#199,.F.);
#257=ORIENTED_EDGE('',*,*,#166,.F.);
#258=ORIENTED_EDGE('',*,*,#199,.T.);
#259=ORIENTED_EDGE('',*,*,#196,.T.);
#260=ORIENTED_EDGE('',*,*,#193,.T.);
#261=ORIENTED_EDGE('',*,*,#190,.T.);
#262=ORIENTED_EDGE('',*,*,#187,.T.);
#263=ORIENTED_EDGE('',*,*,#183,.T.);
#264=ORIENTED_EDGE('',*,*,#170,.F.);
#265=ORIENTED_EDGE('',*,*,#172,.T.);
#266=ORIENTED_EDGE('',*,*,#163,.F.);
#267=ORIENTED_EDGE('',*,*,#167,.T.);
#268=ORIENTED_EDGE('',*,*,#198,.F.);
#269=ORIENTED_EDGE('',*,*,#165,.T.);
#270=ORIENTED_EDGE('',*,*,#161,.F.);
#271=ORIENTED_EDGE('',*,*,#173,.F.);
#272=ORIENTED_EDGE('',*,*,#168,.F.);
#273=ORIENTED_EDGE('',*,*,#185,.T.);
#274=ORIENTED_EDGE('',*,*,#186,.F.);
#275=ORIENTED_EDGE('',*,*,#189,.F.);
#276=ORIENTED_EDGE('',*,*,#192,.F.);
#277=ORIENTED_EDGE('',*,*,#195,.F.);
#278=CYLINDRICAL_SURFACE('',#312,2.);
#279=CYLINDRICAL_SURFACE('',#316,2.);
#280=CYLINDRICAL_SURFACE('',#323,2.5);
#281=CYLINDRICAL_SURFACE('',#325,2.5);
#282=CYLINDRICAL_SURFACE('',#327,6.);
#283=ADVANCED_FACE('',(#31),#278,.F.);
#284=ADVANCED_FACE('',(#32),#21,.T.);
#285=ADVANCED_FACE('',(#33),#279,.F.);
#286=ADVANCED_FACE('',(#34,#15,#16,#17),#22,.T.);
#287=ADVANCED_FACE('',(#35),#280,.F.);
#288=ADVANCED_FACE('',(#36),#281,.F.);
#289=ADVANCED_FACE('',(#37),#282,.F.);
#290=ADVANCED_FACE('',(#38),#23,.T.);
#291=ADVANCED_FACE('',(#39),#24,.T.);
#292=ADVANCED_FACE('',(#40),#25,.T.);
#293=ADVANCED_FACE('',(#41,#18,#19,#20),#26,.T.);
#294=ADVANCED_FACE('',(#42),#27,.T.);
#295=ADVANCED_FACE('',(#43),#28,.T.);
#296=ADVANCED_FACE('',(#44),#29,.T.);
#297=ADVANCED_FACE('',(#45),#30,.F.);
#298=CLOSED_SHELL('',(#283,#284,#285,#286,#287,#288,#289,#290,#291,#292,
#293,#294,#295,#296,#297));
#299=DERIVED_UNIT_ELEMENT(#301,1.);
#300=DERIVED_UNIT_ELEMENT(#504,-3.);
#301=(
MASS_UNIT()
NAMED_UNIT(*)
SI_UNIT(.KILO.,.GRAM.)
);
#302=DERIVED_UNIT((#299,#300));
#303=MEASURE_REPRESENTATION_ITEM('density measure',
POSITIVE_RATIO_MEASURE(7850.),#302);
#304=PROPERTY_DEFINITION_REPRESENTATION(#309,#306);
#305=PROPERTY_DEFINITION_REPRESENTATION(#310,#307);
#306=REPRESENTATION('material name',(#308),#501);
#307=REPRESENTATION('density',(#303),#501);
#308=DESCRIPTIVE_REPRESENTATION_ITEM('Steel','Steel');
#309=PROPERTY_DEFINITION('material property','material name',#511);
#310=PROPERTY_DEFINITION('material property','density of part',#511);
#311=AXIS2_PLACEMENT_3D('',#418,#337,#338);
#312=AXIS2_PLACEMENT_3D('',#419,#339,#340);
#313=AXIS2_PLACEMENT_3D('',#422,#341,#342);
#314=AXIS2_PLACEMENT_3D('',#426,#344,#345);
#315=AXIS2_PLACEMENT_3D('',#428,#347,#348);
#316=AXIS2_PLACEMENT_3D('',#434,#352,#353);
#317=AXIS2_PLACEMENT_3D('',#437,#354,#355);
#318=AXIS2_PLACEMENT_3D('',#441,#357,#358);
#319=AXIS2_PLACEMENT_3D('',#443,#360,#361);
#320=AXIS2_PLACEMENT_3D('',#447,#364,#365);
#321=AXIS2_PLACEMENT_3D('',#449,#366,#367);
#322=AXIS2_PLACEMENT_3D('',#451,#368,#369);
#323=AXIS2_PLACEMENT_3D('',#452,#370,#371);
#324=AXIS2_PLACEMENT_3D('',#455,#373,#374);
#325=AXIS2_PLACEMENT_3D('',#456,#375,#376);
#326=AXIS2_PLACEMENT_3D('',#459,#378,#379);
#327=AXIS2_PLACEMENT_3D('',#460,#380,#381);
#328=AXIS2_PLACEMENT_3D('',#463,#383,#384);
#329=AXIS2_PLACEMENT_3D('',#464,#385,#386);
#330=AXIS2_PLACEMENT_3D('',#470,#390,#391);
#331=AXIS2_PLACEMENT_3D('',#476,#395,#396);
#332=AXIS2_PLACEMENT_3D('',#482,#400,#401);
#333=AXIS2_PLACEMENT_3D('',#488,#405,#406);
#334=AXIS2_PLACEMENT_3D('',#494,#410,#411);
#335=AXIS2_PLACEMENT_3D('',#497,#414,#415);
#336=AXIS2_PLACEMENT_3D('',#498,#416,#417);
#337=DIRECTION('axis',(0.,0.,1.));
#338=DIRECTION('refdir',(1.,0.,0.));
#339=DIRECTION('center_axis',(1.,0.,0.));
#340=DIRECTION('ref_axis',(0.,-0.707106781186548,-0.707106781186547));
#341=DIRECTION('center_axis',(-1.,0.,0.));
#342=DIRECTION('ref_axis',(0.,-0.707106781186548,-0.707106781186547));
#343=DIRECTION('',(1.,0.,0.));
#344=DIRECTION('center_axis',(1.,0.,0.));
#345=DIRECTION('ref_axis',(0.,-0.707106781186548,-0.707106781186547));
#346=DIRECTION('',(-1.,0.,0.));
#347=DIRECTION('center_axis',(0.,1.,0.));
#348=DIRECTION('ref_axis',(0.,0.,1.));
#349=DIRECTION('',(0.,0.,-1.));
#350=DIRECTION('',(1.,0.,0.));
#351=DIRECTION('',(0.,0.,1.));
#352=DIRECTION('center_axis',(1.,0.,0.));
#353=DIRECTION('ref_axis',(0.,0.707106786454904,-0.707106775918191));
#354=DIRECTION('center_axis',(-1.,0.,0.));
#355=DIRECTION('ref_axis',(0.,0.707106786454904,-0.707106775918191));
#356=DIRECTION('',(1.,0.,0.));
#357=DIRECTION('center_axis',(1.,0.,0.));
#358=DIRECTION('ref_axis',(0.,0.707106786454904,-0.707106775918191));
#359=DIRECTION('',(-1.,0.,0.));
#360=DIRECTION('center_axis',(0.,0.,1.));
#361=DIRECTION('ref_axis',(0.,-1.,0.));
#362=DIRECTION('',(0.,-1.,0.));
#363=DIRECTION('',(0.,-1.,0.));
#364=DIRECTION('center_axis',(0.,0.,-1.));
#365=DIRECTION('ref_axis',(-1.,0.,0.));
#366=DIRECTION('center_axis',(0.,0.,-1.));
#367=DIRECTION('ref_axis',(-1.,0.,0.));
#368=DIRECTION('center_axis',(0.,0.,-1.));
#369=DIRECTION('ref_axis',(-1.,0.,0.));
#370=DIRECTION('center_axis',(0.,0.,-1.));
#371=DIRECTION('ref_axis',(-1.,0.,0.));
#372=DIRECTION('',(0.,0.,-1.));
#373=DIRECTION('center_axis',(0.,0.,1.));
#374=DIRECTION('ref_axis',(-1.,0.,0.));
#375=DIRECTION('center_axis',(0.,0.,-1.));
#376=DIRECTION('ref_axis',(-1.,0.,0.));
#377=DIRECTION('',(0.,0.,-1.));
#378=DIRECTION('center_axis',(0.,0.,1.));
#379=DIRECTION('ref_axis',(-1.,0.,0.));
#380=DIRECTION('center_axis',(0.,0.,-1.));
#381=DIRECTION('ref_axis',(-1.,0.,0.));
#382=DIRECTION('',(0.,0.,-1.));
#383=DIRECTION('center_axis',(0.,0.,1.));
#384=DIRECTION('ref_axis',(-1.,0.,0.));
#385=DIRECTION('center_axis',(0.,-1.,-1.49011612678625E-8));
#386=DIRECTION('ref_axis',(0.,1.49011612678625E-8,-1.));
#387=DIRECTION('',(0.,1.49011612678625E-8,-1.));
#388=DIRECTION('',(1.,0.,0.));
#389=DIRECTION('',(0.,-1.49011612678625E-8,1.));
#390=DIRECTION('center_axis',(0.,-5.96046412226771E-8,0.999999999999998));
#391=DIRECTION('ref_axis',(0.,-0.999999999999998,-5.96046412226771E-8));
#392=DIRECTION('',(0.,-0.999999999999998,-5.96046412226771E-8));
#393=DIRECTION('',(0.,-0.999999999999998,-5.96046412226771E-8));
#394=DIRECTION('',(1.,0.,0.));
#395=DIRECTION('center_axis',(0.,1.,0.));
#396=DIRECTION('ref_axis',(0.,0.,1.));
#397=DIRECTION('',(0.,0.,1.));
#398=DIRECTION('',(0.,0.,1.));
#399=DIRECTION('',(1.,0.,0.));
#400=DIRECTION('center_axis',(0.,0.,-1.));
#401=DIRECTION('ref_axis',(0.,1.,0.));
#402=DIRECTION('',(0.,1.,0.));
#403=DIRECTION('',(0.,1.,0.));
#404=DIRECTION('',(1.,0.,0.));
#405=DIRECTION('center_axis',(0.,-1.,0.));
#406=DIRECTION('ref_axis',(0.,0.,-1.));
#407=DIRECTION('',(0.,0.,-1.));
#408=DIRECTION('',(0.,0.,-1.));
#409=DIRECTION('',(1.,0.,0.));
#410=DIRECTION('center_axis',(0.,0.,1.));
#411=DIRECTION('ref_axis',(0.,-1.,0.));
#412=DIRECTION('',(0.,-1.,0.));
#413=DIRECTION('',(0.,-1.,0.));
#414=DIRECTION('center_axis',(1.,0.,0.));
#415=DIRECTION('ref_axis',(0.,0.,-1.));
#416=DIRECTION('center_axis',(1.,0.,0.));
#417=DIRECTION('ref_axis',(0.,1.,0.));
#418=CARTESIAN_POINT('',(0.,0.,0.));
#419=CARTESIAN_POINT('Origin',(0.,-13.,7.00000007450581));
#420=CARTESIAN_POINT('',(0.,-13.,5.00000007450581));
#421=CARTESIAN_POINT('',(0.,-15.,7.00000007450581));
#422=CARTESIAN_POINT('Origin',(0.,-13.,7.00000007450581));
#423=CARTESIAN_POINT('',(95.,-15.,7.00000007450581));
#424=CARTESIAN_POINT('',(0.,-15.,7.00000007450581));
#425=CARTESIAN_POINT('',(95.,-13.,5.00000007450581));
#426=CARTESIAN_POINT('Origin',(95.,-13.,7.00000007450581));
#427=CARTESIAN_POINT('',(0.,-13.,5.00000007450581));
#428=CARTESIAN_POINT('Origin',(0.,-15.,5.00000007450581));
#429=CARTESIAN_POINT('',(0.,-15.,20.));
#430=CARTESIAN_POINT('',(0.,-15.,20.));
#431=CARTESIAN_POINT('',(95.,-15.,20.));
#432=CARTESIAN_POINT('',(0.,-15.,20.));
#433=CARTESIAN_POINT('',(95.,-15.,20.));
#434=CARTESIAN_POINT('Origin',(0.,13.0000001937151,7.00000007450581));
#435=CARTESIAN_POINT('',(0.,15.0000001937151,7.00000010430813));
#436=CARTESIAN_POINT('',(0.,13.0000001937151,5.00000007450581));
#437=CARTESIAN_POINT('Origin',(0.,13.0000001937151,7.00000007450581));
#438=CARTESIAN_POINT('',(95.,13.0000001937151,5.00000007450581));
#439=CARTESIAN_POINT('',(0.,13.0000001937151,5.00000007450581));
#440=CARTESIAN_POINT('',(95.,15.0000001937151,7.00000010430813));
#441=CARTESIAN_POINT('Origin',(95.,13.0000001937151,7.00000007450581));
#442=CARTESIAN_POINT('',(0.,15.0000001937151,7.00000010430813));
#443=CARTESIAN_POINT('Origin',(0.,15.0000002235174,5.00000007450581));
#444=CARTESIAN_POINT('',(95.,15.0000002235174,5.00000007450581));
#445=CARTESIAN_POINT('',(0.,15.0000002235174,5.00000007450581));
#446=CARTESIAN_POINT('',(86.,7.34788079488411E-16,5.));
#447=CARTESIAN_POINT('Origin',(80.,0.,5.00000007450581));
#448=CARTESIAN_POINT('',(17.5,-7.,5.));
#449=CARTESIAN_POINT('Origin',(15.,-7.,5.00000007450581));
#450=CARTESIAN_POINT('',(17.5,7.,5.));
#451=CARTESIAN_POINT('Origin',(15.,7.,5.00000007450581));
#452=CARTESIAN_POINT('Origin',(15.,7.,5.));
#453=CARTESIAN_POINT('',(17.5,7.,0.));
#454=CARTESIAN_POINT('',(17.5,7.,5.));
#455=CARTESIAN_POINT('Origin',(15.,7.,0.));
#456=CARTESIAN_POINT('Origin',(15.,-7.,5.));
#457=CARTESIAN_POINT('',(17.5,-7.,0.));
#458=CARTESIAN_POINT('',(17.5,-7.,5.));
#459=CARTESIAN_POINT('Origin',(15.,-7.,0.));
#460=CARTESIAN_POINT('Origin',(80.,0.,5.));
#461=CARTESIAN_POINT('',(86.,7.34788079488411E-16,0.));
#462=CARTESIAN_POINT('',(86.,-7.34788079488411E-16,5.));
#463=CARTESIAN_POINT('Origin',(80.,0.,0.));
#464=CARTESIAN_POINT('Origin',(0.,15.,20.));
#465=CARTESIAN_POINT('',(95.,15.,20.));
#466=CARTESIAN_POINT('',(95.,15.0000002235174,5.00000007450581));
#467=CARTESIAN_POINT('',(0.,15.,20.));
#468=CARTESIAN_POINT('',(0.,15.,20.));
#469=CARTESIAN_POINT('',(0.,15.0000002235174,5.00000007450581));
#470=CARTESIAN_POINT('Origin',(0.,20.0000002980232,20.0000002980232));
#471=CARTESIAN_POINT('',(0.,20.0000002980232,20.0000002980232));
#472=CARTESIAN_POINT('',(0.,20.0000002980232,20.0000002980232));
#473=CARTESIAN_POINT('',(95.,20.0000002980232,20.0000002980232));
#474=CARTESIAN_POINT('',(95.,20.0000002980232,20.0000002980232));
#475=CARTESIAN_POINT('',(0.,20.0000002980232,20.0000002980232));
#476=CARTESIAN_POINT('Origin',(0.,20.0000002980232,0.));
#477=CARTESIAN_POINT('',(0.,20.0000002980232,0.));
#478=CARTESIAN_POINT('',(0.,20.0000002980232,0.));
#479=CARTESIAN_POINT('',(95.,20.0000002980232,0.));
#480=CARTESIAN_POINT('',(95.,20.0000002980232,0.));
#481=CARTESIAN_POINT('',(0.,20.0000002980232,0.));
#482=CARTESIAN_POINT('Origin',(0.,-20.0000002980232,0.));
#483=CARTESIAN_POINT('',(0.,-20.0000002980232,0.));
#484=CARTESIAN_POINT('',(0.,-20.0000002980232,0.));
#485=CARTESIAN_POINT('',(95.,-20.0000002980232,0.));
#486=CARTESIAN_POINT('',(95.,-20.0000002980232,0.));
#487=CARTESIAN_POINT('',(0.,-20.0000002980232,0.));
#488=CARTESIAN_POINT('Origin',(0.,-20.0000002980232,20.));
#489=CARTESIAN_POINT('',(0.,-20.0000002980232,20.));
#490=CARTESIAN_POINT('',(0.,-20.0000002980232,20.));
#491=CARTESIAN_POINT('',(95.,-20.0000002980232,20.));
#492=CARTESIAN_POINT('',(95.,-20.0000002980232,20.));
#493=CARTESIAN_POINT('',(0.,-20.0000002980232,20.));
#494=CARTESIAN_POINT('Origin',(0.,-15.,20.));
#495=CARTESIAN_POINT('',(0.,-15.,20.));
#496=CARTESIAN_POINT('',(95.,-15.,20.));
#497=CARTESIAN_POINT('Origin',(95.,0.,10.0000001490116));
#498=CARTESIAN_POINT('Origin',(0.,0.,10.0000001490116));
#499=UNCERTAINTY_MEASURE_WITH_UNIT(LENGTH_MEASURE(0.01),#503,
'DISTANCE_ACCURACY_VALUE',
'Maximum model space distance between geometric entities at asserted c
onnectivities');
#500=UNCERTAINTY_MEASURE_WITH_UNIT(LENGTH_MEASURE(0.01),#503,
'DISTANCE_ACCURACY_VALUE',
'Maximum model space distance between geometric entities at asserted c
onnectivities');
#501=(
GEOMETRIC_REPRESENTATION_CONTEXT(3)
GLOBAL_UNCERTAINTY_ASSIGNED_CONTEXT((#499))
GLOBAL_UNIT_ASSIGNED_CONTEXT((#503,#505,#506))
REPRESENTATION_CONTEXT('','3D')
);
#502=(
GEOMETRIC_REPRESENTATION_CONTEXT(3)
GLOBAL_UNCERTAINTY_ASSIGNED_CONTEXT((#500))
GLOBAL_UNIT_ASSIGNED_CONTEXT((#503,#505,#506))
REPRESENTATION_CONTEXT('','3D')
);
#503=(
LENGTH_UNIT()
NAMED_UNIT(*)
SI_UNIT(.MILLI.,.METRE.)
);
#504=(
LENGTH_UNIT()
NAMED_UNIT(*)
SI_UNIT($,.METRE.)
);
#505=(
NAMED_UNIT(*)
PLANE_ANGLE_UNIT()
SI_UNIT($,.RADIAN.)
);
#506=(
NAMED_UNIT(*)
SI_UNIT($,.STERADIAN.)
SOLID_ANGLE_UNIT()
);
#507=SHAPE_DEFINITION_REPRESENTATION(#508,#509);
#508=PRODUCT_DEFINITION_SHAPE('',$,#511);
#509=SHAPE_REPRESENTATION('',(#311),#501);
#510=PRODUCT_DEFINITION_CONTEXT('part definition',#515,'design');
#511=PRODUCT_DEFINITION('2026-08-30-22-58-16-228',
'bracket_channel_v2.stp',#512,#510);
#512=PRODUCT_DEFINITION_FORMATION('',$,#517);
#513=PRODUCT_RELATED_PRODUCT_CATEGORY('bracket_channel_v2.stp',
'bracket_channel_v2.stp',(#517));
#514=APPLICATION_PROTOCOL_DEFINITION('international standard',
'automotive_design',2009,#515);
#515=APPLICATION_CONTEXT(
'Core Data for Automotive Mechanical Design Process');
#516=PRODUCT_CONTEXT('part definition',#515,'mechanical');
#517=PRODUCT('2026-08-30-22-58-16-228','bracket_channel_v2.stp',$,(#516));
#518=PRESENTATION_STYLE_ASSIGNMENT((#519));
#519=SURFACE_STYLE_USAGE(.BOTH.,#520);
#520=SURFACE_SIDE_STYLE('',(#521));
#521=SURFACE_STYLE_FILL_AREA(#522);
#522=FILL_AREA_STYLE('Steel - Satin',(#523));
#523=FILL_AREA_STYLE_COLOUR('Steel - Satin',#524);
#524=COLOUR_RGB('Steel - Satin',0.627450980392157,0.627450980392157,0.627450980392157);
ENDSEC;
END-ISO-10303-21;
